HIERARCHY
ROOT Hips
{
	OFFSET 0.053599 88.859886 3.107447
	CHANNELS 6 Xposition Yposition Zposition Zrotation Yrotation Xrotation 
	JOINT Spine
	{
		OFFSET -0.000000 8.814246 -2.080107
		CHANNELS 3 Zrotation Yrotation Xrotation
		JOINT Spine1
		{
			OFFSET 0.000000 8.844141 0.000000
			CHANNELS 3 Zrotation Yrotation Xrotation
			JOINT Spine2
			{
				OFFSET -0.000000 11.682268 0.000000
				CHANNELS 3 Zrotation Yrotation Xrotation
				JOINT Spine3
				{
					OFFSET 0.000000 11.746700 0.000000
					CHANNELS 3 Zrotation Yrotation Xrotation
					JOINT Neck
					{
						OFFSET -0.000000 17.658264 -0.000000
						CHANNELS 3 Zrotation Yrotation Xrotation
						JOINT Neck1
						{
							OFFSET -0.000000 5.101515 -0.000000
							CHANNELS 3 Zrotation Yrotation Xrotation
							JOINT Head
							{
								OFFSET 0.000000 5.101515 0.000000
								CHANNELS 3 Zrotation Yrotation Xrotation
								JOINT HeadEnd
								{
									OFFSET 0.000000 11.655085 0.000000
									CHANNELS 3 Zrotation Yrotation Xrotation
									End Site
									{
										OFFSET 0.000000 0.000000 0.000000
									}
								}
							}
						}
					}
					JOINT RightShoulder
					{
						OFFSET -2.625389 11.175210 0.000000
						CHANNELS 3 Zrotation Yrotation Xrotation
						JOINT RightArm
						{
							OFFSET -0.000000 10.434715 -0.000000
							CHANNELS 3 Zrotation Yrotation Xrotation
							JOINT RightForeArm
							{
								OFFSET -0.000000 29.628420 0.000000
								CHANNELS 3 Zrotation Yrotation Xrotation
								JOINT RightHand
								{
									OFFSET -0.000000 22.857611 0.000000
									CHANNELS 3 Zrotation Yrotation Xrotation
									JOINT RightHandThumb1
									{
										OFFSET -2.867323 3.959563 2.944291
										CHANNELS 3 Zrotation Yrotation Xrotation
										JOINT RightHandThumb2
										{
											OFFSET 0.000000 3.350399 0.000000
											CHANNELS 3 Zrotation Yrotation Xrotation
											JOINT RightHandThumb3
											{
												OFFSET 0.000000 3.756509 -0.000000
												CHANNELS 3 Zrotation Yrotation Xrotation
												JOINT RightHandThumb4
												{
													OFFSET 0.000000 3.147345 0.000000
													CHANNELS 3 Zrotation Yrotation Xrotation
													End Site
													{
														OFFSET 0.000000 0.000000 0.000000
													}
												}
											}
										}
									}
									JOINT RightHandIndex1
									{
										OFFSET -0.086752 10.030893 2.345280
										CHANNELS 3 Zrotation Yrotation Xrotation
										JOINT RightHandIndex2
										{
											OFFSET -0.000000 4.061090 0.000000
											CHANNELS 3 Zrotation Yrotation Xrotation
											JOINT RightHandIndex3
											{
												OFFSET -0.000000 3.248873 0.000000
												CHANNELS 3 Zrotation Yrotation Xrotation
												JOINT RightHandIndex4
												{
													OFFSET 0.000000 2.639709 -0.000000
													CHANNELS 3 Zrotation Yrotation Xrotation
													End Site
													{
														OFFSET 0.000000 0.000000 0.000000
													}
												}
											}
										}
									}
									JOINT RightHandMiddle1
									{
										OFFSET 0.104102 9.502952 0.006768
										CHANNELS 3 Zrotation Yrotation Xrotation
										JOINT RightHandMiddle2
										{
											OFFSET 0.000000 4.568727 0.000000
											CHANNELS 3 Zrotation Yrotation Xrotation
											JOINT RightHandMiddle3
											{
												OFFSET 0.000000 3.654981 -0.000000
												CHANNELS 3 Zrotation Yrotation Xrotation
												JOINT RightHandMiddle4
												{
													OFFSET -0.000000 2.741236 -0.000000
													CHANNELS 3 Zrotation Yrotation Xrotation
													End Site
													{
														OFFSET 0.000000 0.000000 0.000000
													}
												}
											}
										}
									}
									JOINT RightHandRing1
									{
										OFFSET 0.086752 8.921708 -2.267442
										CHANNELS 3 Zrotation Yrotation Xrotation
										JOINT RightHandRing2
										{
											OFFSET -0.000000 4.061090 0.000000
											CHANNELS 3 Zrotation Yrotation Xrotation
											JOINT RightHandRing3
											{
												OFFSET 0.000000 3.654981 -0.000000
												CHANNELS 3 Zrotation Yrotation Xrotation
												JOINT RightHandRing4
												{
													OFFSET 0.000000 2.741236 -0.000000
													CHANNELS 3 Zrotation Yrotation Xrotation
													End Site
													{
														OFFSET 0.000000 0.000000 0.000000
													}
												}
											}
										}
									}
									JOINT RightHandPinky1
									{
										OFFSET -0.173504 7.976997 -4.467199
										CHANNELS 3 Zrotation Yrotation Xrotation
										JOINT RightHandPinky2
										{
											OFFSET 0.000000 3.350399 -0.000000
											CHANNELS 3 Zrotation Yrotation Xrotation
											JOINT RightHandPinky3
											{
												OFFSET -0.000000 2.842763 0.000000
												CHANNELS 3 Zrotation Yrotation Xrotation
												JOINT RightHandPinky4
												{
													OFFSET -0.000000 2.639709 0.000000
													CHANNELS 3 Zrotation Yrotation Xrotation
													End Site
													{
														OFFSET 0.000000 0.000000 0.000000
													}
												}
											}
										}
									}
									JOINT RightForeArmEnd
									{
										OFFSET 0.000000 0.000000 0.000000
										CHANNELS 3 Zrotation Yrotation Xrotation
										End Site
										{
											OFFSET 0.000000 0.000000 0.000000
										}
									}
								}
								JOINT RightArmEnd
								{
									OFFSET 0.000000 0.000000 0.000000
									CHANNELS 3 Zrotation Yrotation Xrotation
									End Site
									{
										OFFSET 0.000000 0.000000 0.000000
									}
								}
							}
						}
					}
					JOINT LeftShoulder
					{
						OFFSET 2.625389 11.175210 0.000000
						CHANNELS 3 Zrotation Yrotation Xrotation
						JOINT LeftArm
						{
							OFFSET 0.000000 10.813635 -0.000000
							CHANNELS 3 Zrotation Yrotation Xrotation
							JOINT LeftForeArm
							{
								OFFSET 0.000000 28.724781 0.000000
								CHANNELS 3 Zrotation Yrotation Xrotation
								JOINT LeftHand
								{
									OFFSET 0.644384 25.716167 -0.328871
									CHANNELS 3 Zrotation Yrotation Xrotation
									JOINT LeftHandThumb1
									{
										OFFSET 2.867323 3.959563 2.944291
										CHANNELS 3 Zrotation Yrotation Xrotation
										JOINT LeftHandThumb2
										{
											OFFSET 0.000000 3.350399 0.000000
											CHANNELS 3 Zrotation Yrotation Xrotation
											JOINT LeftHandThumb3
											{
												OFFSET -0.000000 3.756509 0.000000
												CHANNELS 3 Zrotation Yrotation Xrotation
												JOINT LeftHandThumb4
												{
													OFFSET -0.000000 3.100000 0.000000
													CHANNELS 3 Zrotation Yrotation Xrotation
													End Site
													{
														OFFSET 0.000000 0.000000 0.000000
													}
												}
											}
										}
									}
									JOINT LeftHandIndex1
									{
										OFFSET 0.086752 10.030893 2.345280
										CHANNELS 3 Zrotation Yrotation Xrotation
										JOINT LeftHandIndex2
										{
											OFFSET -0.000000 4.061090 -0.000000
											CHANNELS 3 Zrotation Yrotation Xrotation
											JOINT LeftHandIndex3
											{
												OFFSET 0.000000 3.248873 -0.000000
												CHANNELS 3 Zrotation Yrotation Xrotation
												JOINT LeftHandIndex4
												{
													OFFSET 0.000000 2.639709 -0.000000
													CHANNELS 3 Zrotation Yrotation Xrotation
													End Site
													{
														OFFSET 0.000000 0.000000 0.000000
													}
												}
											}
										}
									}
									JOINT LeftHandMiddle1
									{
										OFFSET -0.104102 9.502952 0.006768
										CHANNELS 3 Zrotation Yrotation Xrotation
										JOINT LeftHandMiddle2
										{
											OFFSET -0.000000 4.568727 -0.000000
											CHANNELS 3 Zrotation Yrotation Xrotation
											JOINT LeftHandMiddle3
											{
												OFFSET 0.000000 3.654981 0.000000
												CHANNELS 3 Zrotation Yrotation Xrotation
												JOINT LeftHandMiddle4
												{
													OFFSET 0.000000 2.741236 -0.000000
													CHANNELS 3 Zrotation Yrotation Xrotation
													End Site
													{
														OFFSET 0.000000 0.000000 0.000000
													}
												}
											}
										}
									}
									JOINT LeftHandRing1
									{
										OFFSET -0.086752 8.921708 -2.267442
										CHANNELS 3 Zrotation Yrotation Xrotation
										JOINT LeftHandRing2
										{
											OFFSET 0.000000 4.061090 0.000000
											CHANNELS 3 Zrotation Yrotation Xrotation
											JOINT LeftHandRing3
											{
												OFFSET 0.000000 3.654981 0.000000
												CHANNELS 3 Zrotation Yrotation Xrotation
												JOINT LeftHandRing4
												{
													OFFSET 0.000000 2.741236 0.000000
													CHANNELS 3 Zrotation Yrotation Xrotation
													End Site
													{
														OFFSET 0.000000 0.000000 0.000000
													}
												}
											}
										}
									}
									JOINT LeftHandPinky1
									{
										OFFSET 0.173504 7.976997 -4.467199
										CHANNELS 3 Zrotation Yrotation Xrotation
										JOINT LeftHandPinky2
										{
											OFFSET -0.000000 3.350399 -0.000000
											CHANNELS 3 Zrotation Yrotation Xrotation
											JOINT LeftHandPinky3
											{
												OFFSET 0.000000 2.842763 0.000000
												CHANNELS 3 Zrotation Yrotation Xrotation
												JOINT LeftHandPinky4
												{
													OFFSET -0.000000 2.639709 -0.000000
													CHANNELS 3 Zrotation Yrotation Xrotation
													End Site
													{
														OFFSET 0.000000 0.000000 0.000000
													}
												}
											}
										}
									}
									JOINT LeftForeArmEnd
									{
										OFFSET 0.000000 0.000000 0.000000
										CHANNELS 3 Zrotation Yrotation Xrotation
										End Site
										{
											OFFSET 0.000000 0.000000 0.000000
										}
									}
								}
								JOINT LeftArmEnd
								{
									OFFSET 0.000000 0.000000 0.000000
									CHANNELS 3 Zrotation Yrotation Xrotation
									End Site
									{
										OFFSET 0.000000 0.000000 0.000000
									}
								}
							}
						}
					}
				}
			}
		}
	}
	JOINT RightUpLeg
	{
		OFFSET -11.289943 0.000000 0.000000
		CHANNELS 3 Zrotation Yrotation Xrotation
		JOINT RightLeg
		{
			OFFSET 0.000000 -38.200325 0.000000
			CHANNELS 3 Zrotation Yrotation Xrotation
			JOINT RightFoot
			{
				OFFSET -0.000000 -39.900856 -0.000000
				CHANNELS 3 Zrotation Yrotation Xrotation
				JOINT RightToeBase
				{
					OFFSET 0.000000 0.000000 15.261641
					CHANNELS 3 Zrotation Yrotation Xrotation
					JOINT RightToeBaseEnd
					{
						OFFSET 0.000000 0.000000 7.370709
						CHANNELS 3 Zrotation Yrotation Xrotation
						End Site
						{
							OFFSET 0.000000 0.000000 0.000000
						}
					}
				}
				JOINT RightLegEnd
				{
					OFFSET 0.000000 0.000000 0.000000
					CHANNELS 3 Zrotation Yrotation Xrotation
					End Site
					{
						OFFSET 0.000000 0.000000 0.000000
					}
				}
			}
			JOINT RightUpLegEnd
			{
				OFFSET 0.000000 0.000000 0.000000
				CHANNELS 3 Zrotation Yrotation Xrotation
				End Site
				{
					OFFSET 0.000000 0.000000 0.000000
				}
			}
		}
	}
	JOINT LeftUpLeg
	{
		OFFSET 11.315661 -0.000000 0.000000
		CHANNELS 3 Zrotation Yrotation Xrotation
		JOINT LeftLeg
		{
			OFFSET -0.000000 -38.200325 -0.000000
			CHANNELS 3 Zrotation Yrotation Xrotation
			JOINT LeftFoot
			{
				OFFSET 0.000000 -39.900856 -0.000000
				CHANNELS 3 Zrotation Yrotation Xrotation
				JOINT LeftToeBase
				{
					OFFSET -0.000000 -0.000000 15.261641
					CHANNELS 3 Zrotation Yrotation Xrotation
					JOINT LeftToeBaseEnd
					{
						OFFSET 0.000000 -0.000000 7.539996
						CHANNELS 3 Zrotation Yrotation Xrotation
						End Site
						{
							OFFSET 0.000000 0.000000 0.000000
						}
					}
				}
				JOINT LeftLegEnd
				{
					OFFSET 0.000000 0.000000 0.000000
					CHANNELS 3 Zrotation Yrotation Xrotation
					End Site
					{
						OFFSET 0.000000 0.000000 0.000000
					}
				}
			}
			JOINT LeftUpLegEnd
			{
				OFFSET 0.000000 0.000000 0.000000
				CHANNELS 3 Zrotation Yrotation Xrotation
				End Site
				{
					OFFSET 0.000000 0.000000 0.000000
				}
			}
		}
	}
}
MOTION
Frames: 5
Frame Time: 0.016667
0.079261 88.724831 3.919060 -0.069291 -0.404495 -11.066838 0.925793 0.131664 7.393023 -0.026878 0.169606 2.499027 -0.703446 0.570620 5.823564 -1.554539 0.453653 4.965564 0.902287 0.257128 5.164471 0.187061 0.293117 -3.112463 -0.368317 -0.908183 -19.925732 0.000000 0.000000 0.000000 91.566444 0.071487 10.429051 67.167793 -27.123394 5.047557 0.304910 18.075693 26.351795 0.208924 10.694962 -7.132283 19.654650 30.177027 62.249241 -8.278763 -11.891331 -19.995308 -6.173966 -7.762716 -13.822911 0.000000 0.000000 0.000000 11.425118 -10.843089 2.111462 9.475163 0.383175 1.288614 9.288588 -0.050726 1.281403 0.000000 0.000000 0.000000 10.798487 -5.294867 0.505911 8.410154 0.452489 0.487182 8.661806 -0.040618 0.432991 0.000000 0.000000 0.000000 12.398360 2.336480 -0.166042 9.373207 -0.901658 -0.782713 9.297998 0.053526 -0.561666 0.000000 0.000000 0.000000 12.281549 10.742856 -1.680606 9.617244 -1.679536 -2.269913 9.475100 0.214056 -1.881503 0.000000 0.000000 0.000000 0.000000 0.000000 0.000000 0.000000 0.000000 0.000000 -89.363831 0.206174 5.159266 -72.570175 14.856185 -7.235461 -0.386820 -14.657693 56.065151 -0.397180 -2.785067 -15.062346 -19.757259 -30.126085 62.023846 8.533329 12.068996 -20.300760 6.244312 8.027125 -14.367682 0.000000 0.000000 0.000000 -15.984740 -5.943546 3.351009 -11.012124 0.418957 -0.999888 -10.958223 -0.055141 -0.949974 0.000000 0.000000 0.000000 -16.197996 -0.686995 0.856278 -10.893181 0.448501 -0.475954 -11.247982 -0.037650 -0.381206 0.000000 0.000000 0.000000 -20.101028 7.762135 -1.623942 -13.786674 -0.899855 0.816106 -13.763014 0.064698 0.648572 0.000000 0.000000 0.000000 -22.877441 16.694578 -4.916868 -15.461317 -1.593233 2.845748 -15.165322 0.368698 2.454834 0.000000 0.000000 0.000000 0.000000 0.000000 0.000000 0.000000 0.000000 0.000000 -1.037093 -9.640496 16.304403 -0.090110 -0.744994 4.583575 -2.910047 -7.134522 16.574299 -0.927532 0.867009 -18.407383 0.000000 0.000000 0.000000 0.000000 0.000000 0.000000 0.000000 0.000000 0.000000 -1.636482 -6.624147 9.548045 0.056930 0.295529 11.377649 3.799418 -1.786535 15.807574 0.173808 -0.398240 -20.542688 0.000000 0.000000 0.000000 0.000000 0.000000 0.000000 0.000000 0.000000 0.000000 
0.081921 88.721901 3.937427 -0.062051 -0.453538 -11.099687 0.903836 0.130287 7.419818 -0.023598 0.169700 2.510211 -0.737702 0.567665 5.867685 -1.545087 0.441228 4.962417 1.007021 0.235299 5.165575 0.204604 0.323031 -3.100790 -0.364958 -0.902863 -19.873272 0.000000 0.000000 0.000000 91.612427 0.053390 10.475951 67.060112 -27.234583 5.135938 0.304595 18.065628 26.394138 0.206218 10.770893 -7.103148 19.626324 30.189222 62.284908 -8.242775 -11.829195 -19.898813 -6.146316 -7.723681 -13.754683 0.000000 0.000000 0.000000 11.188425 -10.805508 2.118790 9.353275 0.383297 1.288275 9.161414 -0.050170 1.282453 0.000000 0.000000 0.000000 10.570616 -5.253936 0.504330 8.275809 0.451990 0.488180 8.533331 -0.040777 0.434359 0.000000 0.000000 0.000000 12.213788 2.367289 -0.195673 9.241770 -0.900861 -0.785737 9.164145 0.054243 -0.564136 0.000000 0.000000 0.000000 12.152816 10.752532 -1.753140 9.506401 -1.676946 -2.279876 9.360943 0.214807 -1.890513 0.000000 0.000000 0.000000 0.000000 0.000000 0.000000 0.000000 0.000000 0.000000 -89.396194 0.208381 5.206731 -72.562225 14.951563 -7.146791 -0.401110 -14.630486 55.892139 -0.415045 -2.751562 -15.065976 -19.642471 -30.160782 62.138428 8.419390 11.841208 -19.954754 6.149491 7.877449 -14.129906 0.000000 0.000000 0.000000 -15.054681 -6.114195 3.559467 -10.472223 0.419390 -1.004804 -10.425921 -0.053944 -0.955013 0.000000 0.000000 0.000000 -15.324992 -0.841423 0.968374 -10.352753 0.448462 -0.477457 -10.710688 -0.037594 -0.383536 0.000000 0.000000 0.000000 -19.235296 7.625818 -1.656305 -13.216934 -0.900328 0.818882 -13.189445 0.064559 0.651298 0.000000 0.000000 0.000000 -22.107828 16.609529 -5.076814 -14.945082 -1.595099 2.856691 -14.645510 0.366822 2.466521 0.000000 0.000000 0.000000 0.000000 0.000000 0.000000 0.000000 0.000000 0.000000 -1.038922 -9.633240 16.348604 -0.089833 -0.747308 4.584222 -2.909325 -7.091955 16.530235 -0.924158 0.874542 -18.379147 0.000000 0.000000 0.000000 0.000000 0.000000 0.000000 0.000000 0.000000 0.000000 -1.619819 -6.581614 9.594141 0.057815 0.296755 11.389997 3.773367 -1.774674 15.791933 0.175680 -0.400566 -20.545006 0.000000 0.000000 0.000000 0.000000 0.000000 0.000000 0.000000 0.000000 0.000000 
0.087451 88.719948 3.958059 -0.052300 -0.503862 -11.130826 0.885189 0.128357 7.444328 -0.022765 0.170372 2.517774 -0.769635 0.563087 5.908141 -1.539098 0.430209 4.959916 1.102238 0.227726 5.160600 0.221117 0.361386 -3.092897 -0.364911 -0.898658 -19.813610 0.000000 0.000000 0.000000 91.657928 0.032864 10.522840 66.956863 -27.350698 5.220323 0.307438 18.046686 26.414289 0.234044 10.846285 -7.070007 19.600569 30.200663 62.318275 -8.208343 -11.770854 -19.808294 -6.120026 -7.687425 -13.690663 0.000000 0.000000 0.000000 10.987668 -10.772946 2.105310 9.249450 0.383759 1.285383 9.052840 -0.049297 1.281160 0.000000 0.000000 0.000000 10.377936 -5.219146 0.489494 8.161380 0.451853 0.488122 8.424680 -0.040733 0.434770 0.000000 0.000000 0.000000 12.057164 2.393237 -0.225146 9.133752 -0.900683 -0.786818 9.055007 0.054612 -0.565124 0.000000 0.000000 0.000000 12.037398 10.761070 -1.815386 9.415936 -1.675619 -2.283538 9.266766 0.214507 -1.894543 0.000000 0.000000 0.000000 0.000000 0.000000 0.000000 0.000000 0.000000 0.000000 -89.431511 0.211710 5.248470 -72.563980 15.017100 -7.074714 -0.423466 -14.633202 55.717674 -0.487411 -2.794590 -15.059272 -19.552448 -30.188772 62.229092 8.328703 11.662642 -19.681654 6.074388 7.760260 -13.943183 0.000000 0.000000 0.000000 -14.315640 -6.249690 3.685340 -10.048369 0.419158 -1.010427 -10.008506 -0.053239 -0.960333 0.000000 0.000000 0.000000 -14.636049 -0.964221 1.027803 -9.928039 0.448137 -0.479261 -10.287552 -0.037707 -0.385983 0.000000 0.000000 0.000000 -18.553333 7.517061 -1.706078 -12.769746 -0.900322 0.821570 -12.737592 0.064621 0.654010 0.000000 0.000000 0.000000 -21.507616 16.543201 -5.218155 -14.542898 -1.595597 2.866211 -14.240102 0.365653 2.477034 0.000000 0.000000 0.000000 0.000000 0.000000 0.000000 0.000000 0.000000 0.000000 -1.044748 -9.624349 16.391493 -0.089660 -0.749803 4.583892 -2.909145 -7.053744 16.488422 -0.922132 0.881517 -18.349489 0.000000 0.000000 0.000000 0.000000 0.000000 0.000000 0.000000 0.000000 0.000000 -1.607676 -6.545067 9.643754 0.058542 0.297633 11.390764 3.747079 -1.765860 15.778977 0.177320 -0.403387 -20.546284 0.000000 0.000000 0.000000 0.000000 0.000000 0.000000 0.000000 0.000000 0.000000 
0.095417 88.719452 3.980510 -0.041646 -0.554517 -11.157045 0.870375 0.126262 7.465780 -0.022219 0.170513 2.520108 -0.799236 0.558911 5.942887 -1.537314 0.421283 4.956493 1.181325 0.233200 5.144147 0.234381 0.404659 -3.092597 -0.369162 -0.895053 -19.747381 0.000000 0.000000 0.000000 91.694214 0.012544 10.569507 66.863663 -27.474428 5.290316 0.312070 18.011642 26.406912 0.290129 10.923034 -7.039909 19.580757 30.209856 62.345028 -8.180392 -11.723971 -19.735912 -6.098650 -7.658851 -13.639440 0.000000 0.000000 0.000000 10.847886 -10.748093 2.072832 9.172769 0.384807 1.279992 8.972399 -0.047956 1.277464 0.000000 0.000000 0.000000 10.243393 -5.194091 0.463912 8.075659 0.452177 0.487132 8.345316 -0.040438 0.434270 0.000000 0.000000 0.000000 11.949533 2.410375 -0.249965 9.057709 -0.901316 -0.785856 8.979321 0.054456 -0.564557 0.000000 0.000000 0.000000 11.957150 10.764677 -1.858145 9.354418 -1.676308 -2.280960 9.201288 0.212734 -1.893787 0.000000 0.000000 0.000000 0.000000 0.000000 0.000000 0.000000 0.000000 0.000000 -89.460548 0.215557 5.287102 -72.573364 15.067839 -7.025841 -0.451205 -14.638546 55.530659 -0.607002 -2.894755 -15.062194 -19.484892 -30.209652 62.296497 8.261748 11.528894 -19.477556 6.018734 7.672829 -13.804054 0.000000 0.000000 0.000000 -13.768652 -6.347415 3.735335 -9.730930 0.419219 -1.014024 -9.695879 -0.052116 -0.963660 0.000000 0.000000 0.000000 -14.128129 -1.054426 1.039616 -9.609630 0.447974 -0.480397 -9.968403 -0.037631 -0.387704 0.000000 0.000000 0.000000 -18.052898 7.434932 -1.765989 -12.436625 -0.900495 0.823219 -12.398931 0.064445 0.655956 0.000000 0.000000 0.000000 -21.073891 16.491739 -5.331667 -14.245496 -1.596440 2.871904 -13.940183 0.363879 2.484111 0.000000 0.000000 0.000000 0.000000 0.000000 0.000000 0.000000 0.000000 0.000000 -1.052766 -9.612969 16.429354 -0.089557 -0.752085 4.582940 -2.908808 -7.024693 16.455406 -0.921254 0.887191 -18.322733 0.000000 0.000000 0.000000 0.000000 0.000000 0.000000 0.000000 0.000000 0.000000 -1.598948 -6.515252 9.693152 0.059106 0.298418 11.381015 3.722507 -1.759477 15.769138 0.178669 -0.406537 -20.547237 0.000000 0.000000 0.000000 0.000000 0.000000 0.000000 0.000000 0.000000 0.000000 
0.105306 88.720566 4.004134 -0.031186 -0.605486 -11.176837 0.858805 0.124563 7.485761 -0.020452 0.169503 2.516701 -0.826571 0.557304 5.970573 -1.539155 0.414730 4.950046 1.238069 0.250541 5.114892 0.243121 0.449455 -3.100399 -0.377850 -0.891863 -19.677467 0.000000 0.000000 0.000000 91.719025 -0.005731 10.615772 66.781303 -27.611870 5.341537 0.317521 17.951447 26.362082 0.372477 10.992027 -7.026128 19.570190 30.215567 62.361549 -8.162834 -11.695600 -19.692266 -6.085320 -7.642661 -13.608788 0.000000 0.000000 0.000000 10.786874 -10.732587 2.018127 9.128908 0.386426 1.272581 8.926045 -0.046213 1.271626 0.000000 0.000000 0.000000 10.182799 -5.181215 0.425421 8.024083 0.452903 0.485476 8.300843 -0.039945 0.433041 0.000000 0.000000 0.000000 11.903595 2.415960 -0.271788 9.017519 -0.902710 -0.783287 8.940886 0.053775 -0.562768 0.000000 0.000000 0.000000 11.926112 10.760561 -1.879638 9.324661 -1.678954 -2.273902 9.167939 0.209623 -1.889750 0.000000 0.000000 0.000000 0.000000 0.000000 0.000000 0.000000 0.000000 0.000000 -89.481125 0.219193 5.323529 -72.587456 15.118864 -6.999822 -0.480961 -14.625637 55.319519 -0.760586 -3.019569 -15.096268 -19.437431 -30.223658 62.342529 8.217191 11.434997 -19.336363 5.981284 7.611990 -13.707735 0.000000 0.000000 0.000000 -13.399935 -6.408311 3.719516 -9.507671 0.419971 -1.014827 -9.475503 -0.050271 -0.964360 0.000000 0.000000 0.000000 -13.784009 -1.114159 1.010628 -9.384653 0.448189 -0.480575 -9.740113 -0.037237 -0.388457 0.000000 0.000000 0.000000 -17.712427 7.376053 -1.829360 -12.201246 -0.901167 0.823464 -12.157596 0.063823 0.656808 0.000000 0.000000 0.000000 -20.780661 16.450455 -5.410956 -14.033867 -1.598537 2.872508 -13.727211 0.360764 2.486673 0.000000 0.000000 0.000000 0.000000 0.000000 0.000000 0.000000 0.000000 0.000000 -1.061736 -9.598650 16.459850 -0.089414 -0.753851 4.581724 -2.907237 -7.006465 16.435076 -0.921131 0.891306 -18.302349 0.000000 0.000000 0.000000 0.000000 0.000000 0.000000 0.000000 0.000000 0.000000 -1.592471 -6.489385 9.738359 0.059465 0.299368 11.363567 3.701573 -1.753936 15.763519 0.179672 -0.409611 -20.549576 0.000000 0.000000 0.000000 0.000000 0.000000 0.000000 0.000000 0.000000 0.000000 
